# xmcd
#
# Track frame offsets:
# 150
# 23104
# 36104
# 51069
# 68777
# 83082
# 110295
# 129842
# 172957
# 182284
# 213015
# 233844
# 247082
# 253772
# 267365
# 278243
# 294097
# 312323
#
# Disc length: 4337 seconds
#
#
# Revision: 0
# Processed by: cddbd v1.5.2PL0 Copyright (c) Steve Scherf et al.
# Submitted via: FreeRIP 2.951 
#
DISCID=ee10ef12
DTITLE=Michel Simone - The Piano
DYEAR=1900
DGENRE=Classical
TTITLE0=Memphis Blues
TTITLE1=Somewhere
TTITLE2=Gnossienne No.1
TTITLE3=Misty
TTITLE4=Keeping Out Of Mischief Now
TTITLE5=Promenade- The Market Place Of Limoges
TTITLE6=Moon River
TTITLE7=Hungarian Rhapsody
TTITLE8=Alligator Crawl
TTITLE9=Pavane
TTITLE10=Stardust
TTITLE11=Tenderly
TTITLE12=Karn Evil 9 (2nd impression)
TTITLE13=Cry Me A River
TTITLE14=To A Wild Rose
TTITLE15=You Made Me Love You
TTITLE16=The Rest Of Your Life
TTITLE17=The Girl With The Flaxen Hair
EXTD=
EXTT0=
EXTT1=
EXTT2=
EXTT3=
EXTT4=
EXTT5=
EXTT6=
EXTT7=
EXTT8=
EXTT9=
EXTT10=
EXTT11=
EXTT12=
EXTT13=
EXTT14=
EXTT15=
EXTT16=
EXTT17=
PLAYORDER=
